<?xml version="1.0" encoding="utf-8"?>
<!-- Uploaded to: SVG Repo, www.svgrepo.com, Generator: SVG Repo Mixer Tools -->
<svg width="800px" height="800px" viewBox="-46.8 0 325.334 325.334" xmlns="http://www.w3.org/2000/svg"><defs><style>.a{fill:#ffffff;}.b{fill:#7a7473;}.c{fill:#211715;}.d{fill:#f6928f;}.e{fill:#6dbf6b;}</style></defs><path class="a" d="M57.931,90.107a7.232,7.232,0,0,1,1.1.816s-9.53-48.645,51.8-48.645S168.41,90.923,168.41,90.923a8.15,8.15,0,0,1,6.521-1.908,7.694,7.694,0,0,1,5.533,3.679,10.859,10.859,0,0,1,1.139,4.377,32.6,32.6,0,0,1-3.324,17.283,20.718,20.718,0,0,1-5.359,7.033,13.728,13.728,0,0,1-6.389,2.88l-1.086.167c-.535,1.973-1.122,3.62-1.411,4.5-1.768,4.8-11.257,20.818-23.441,27.869.226,3.016.6,6.1,1.067,8.79.77,4.4.53,8.34,6.65,10.55.4.14,7.19,3.28,8.11,3.68l1.9.826-1.661,1.406c-7.661,6.489-29.733,13.019-45.952,12.978-18.474-.046-38.034-7.353-47.407-14.207l10.112-3.153c.75-.33,3.76-1.39,4.17-1.53,6.12-2.21,5.87-6.15,6.64-10.55a96.983,96.983,0,0,0,1.089-9.829,51.206,51.206,0,0,1-11.747-10.545,55.439,55.439,0,0,1-10.568-20.629c-1.3-.2-2.083-.318-2.083-.318a13.728,13.728,0,0,1-6.389-2.88,20.718,20.718,0,0,1-5.359-7.033,32.6,32.6,0,0,1-3.324-17.283,10.859,10.859,0,0,1,1.139-4.377,7.694,7.694,0,0,1,5.533-3.679A8.271,8.271,0,0,1,57.931,90.107Z"/><path class="b" d="M158.8,75.216a83.011,83.011,0,0,1,9.336,15.972,8.093,8.093,0,0,1,6.8-2.173,7.3,7.3,0,0,1,1.419.358c4.053-10.41,4.648-25.492-.47-39.8-3.6-10.06-12.568-20.6-18.939-23.537l-9.2-6.614c-7.837-10.735-19.684-16.393-36.4-16.9C95.683,2.038,77.644,5.2,63.93,19l4.414,4.455C60.262,28.645,53.936,38.366,51,46.989c-3.52,10.338-4.571,25.048-.391,42.428l.03.125a7.759,7.759,0,0,1,1.873-.527,8.055,8.055,0,0,1,6.976,2.358C75.261,76.3,89,67.347,102.857,56.46c.08.922,3.033,8.305,3.724,8.586.94.382,11.259-6.1,18.454-10.533l11.325,2.98a42.272,42.272,0,0,1,13.278,7.776A62.883,62.883,0,0,1,158.8,75.216Z"/><path class="c" d="M164.047,118.2a27.444,27.444,0,0,1-1.3,6.911c-.259.87-.545,1.732-.834,2.593-.078.232-.152.466-.238.7-.036.1-.079.192-.113.289-.173.5.139-.306.028-.066a57.994,57.994,0,0,1-3.606,6.6,64.989,64.989,0,0,1-14.512,16.739,27.628,27.628,0,0,1-10.752,5.439c-3.009.692-1.735,5.321,1.276,4.629,8.115-1.864,14.912-7.7,20.273-13.814a70.172,70.172,0,0,0,11.313-16.824,35.633,35.633,0,0,0,3.261-13.19c.1-3.09-4.7-3.086-4.8,0Z"/><path class="c" d="M60.729,89.226A10.613,10.613,0,0,0,49.8,87.308c-3.871,1.589-5.779,4.917-6.273,8.944a33.441,33.441,0,0,0,5.846,23.1,17.422,17.422,0,0,0,10.9,7.232,2.47,2.47,0,0,0,2.953-1.676,2.42,2.42,0,0,0-1.677-2.952c-8.015-1.377-11.813-10.145-13.047-17.338a29.121,29.121,0,0,1-.358-5.994c.063-1.711.145-3.713,1.181-5.16a5.647,5.647,0,0,1,8.01-.841,2.463,2.463,0,0,0,3.394,0,2.421,2.421,0,0,0,0-3.394Z"/><path class="c" d="M58.925,117.4c2.963,17.1,12.223,33.837,28.061,42.094a38.054,38.054,0,0,0,13.768,4.125,2.416,2.416,0,0,0,2.4-2.4,2.454,2.454,0,0,0-2.4-2.4C84.4,157.127,71.644,142.467,66.5,127.729a72.9,72.9,0,0,1-2.946-11.6,2.42,2.42,0,0,0-2.953-1.676,2.455,2.455,0,0,0-1.676,2.952Z"/><path class="c" d="M155.73,28.107a26.98,26.98,0,0,1,8,6.392,51.749,51.749,0,0,1,7.493,10.539c4.472,8.3,6.187,18.237,5.905,27.6a50.506,50.506,0,0,1-2.371,14.09c-.956,2.945,3.678,4.207,4.628,1.276,3.035-9.356,3.205-19.553,1.456-29.175A55.058,55.058,0,0,0,168.268,32.39c-2.82-3.271-6.166-6.56-10.116-8.428a2.468,2.468,0,0,0-3.283.861,2.421,2.421,0,0,0,.861,3.284Z"/><path class="c" d="M72.7,18.6C62.947,22.262,55.7,31.035,51.24,40.191c-4.381,9-5.933,19.067-5.732,29.015a98.878,98.878,0,0,0,2.785,20.849c.715,3,5.345,1.732,4.629-1.276-4.5-18.888-4.2-40.569,8.839-56.162,3.3-3.941,7.345-7.557,12.219-9.385a2.467,2.467,0,0,0,1.677-2.952A2.42,2.42,0,0,0,72.7,18.6Z"/><path class="c" d="M149.815,18.21A41.758,41.758,0,0,0,137.148,6.661,48.4,48.4,0,0,0,119.936.887c-12.571-1.851-26.22-.9-38.117,3.731A56.648,56.648,0,0,0,62.233,17.305c-2.189,2.186,1.2,5.581,3.394,3.394,8.874-8.861,20.625-13.835,33-15.278,11.213-1.308,23.649-.9,33.931,4.219A36.377,36.377,0,0,1,145.67,20.632a2.471,2.471,0,0,0,3.284.861,2.417,2.417,0,0,0,.861-3.283Z"/><path class="c" d="M125.226,51.578c-5.686,3.489-11.285,7.213-17.19,10.327-.436.23-.877.445-1.32.66-.095.044-.191.087-.288.128q.534-.221.2-.091c.007.013-.371.1-.39.121.376-.4,2.342.831,1.886.493.208.154.3.492.1.084-.234-.468-.5-.921-.723-1.4-.578-1.22-.9-2-1.39-3.273-.218-.563-.431-1.127-.624-1.7-.1-.293-.373-1.569-.228-.473a2.441,2.441,0,0,0-4.1-1.7C87.078,65.811,72.4,75.974,59.3,88.242c-2.259,2.117,1.14,5.506,3.394,3.394,13.091-12.267,27.774-22.431,41.856-33.479l-4.1-1.7a23.848,23.848,0,0,0,2.065,5.994c.688,1.619,1.524,4.4,3.462,4.917,1.74.464,3.757-.923,5.206-1.715,2.486-1.36,4.909-2.836,7.327-4.311,3.052-1.861,6.085-3.753,9.131-5.622,2.629-1.613.22-5.767-2.422-4.145Z"/><path class="c" d="M135.722,59.807a45.879,45.879,0,0,1,17.989,12.918,78.031,78.031,0,0,1,11.967,18.8,2.419,2.419,0,0,0,3.283.861,2.456,2.456,0,0,0,.861-3.284,81.908,81.908,0,0,0-13-20.091,54.747,54.747,0,0,0-9.22-8.364A48.85,48.85,0,0,0,137,55.179a2.417,2.417,0,0,0-2.952,1.676,2.455,2.455,0,0,0,1.676,2.952Z"/><path class="c" d="M170.107,92.62a5.676,5.676,0,0,1,7.913.7c1.086,1.4,1.195,3.389,1.27,5.083a29.2,29.2,0,0,1-.35,6.216c-1.234,7.194-5.031,15.961-13.047,17.338a2.419,2.419,0,0,0-1.677,2.952,2.456,2.456,0,0,0,2.953,1.676c8.234-1.414,13.136-9.156,15.418-16.577a34.451,34.451,0,0,0,1.466-12.269c-.261-3.989-1.468-7.74-5.134-9.828a10.654,10.654,0,0,0-12.206,1.319,2.421,2.421,0,0,0,0,3.394,2.449,2.449,0,0,0,3.394,0Z"/><path class="c" d="M74.621,179.741c-.725.309-.029.022.131-.039.258-.1.517-.194.777-.29q.72-.264,1.444-.521a33.335,33.335,0,0,0,3.121-1.22,10.258,10.258,0,0,0,5.215-5.559A30.241,30.241,0,0,0,86.59,165.9c.565-3.356.888-6.752,1.12-10.146a2.4,2.4,0,1,0-4.8,0c-.2,2.965-.453,5.938-.949,8.87a37.172,37.172,0,0,1-1.118,5.781c-.161.475.134-.221-.105.272-.1.207-.206.411-.324.608a2.742,2.742,0,0,1-.648.838,7.189,7.189,0,0,1-2.478,1.568c-1.679.68-3.421,1.19-5.09,1.9a2.416,2.416,0,0,0-.861,3.284,2.465,2.465,0,0,0,3.284.861Z"/><path class="c" d="M138.19,156.8c.309,3.948.911,7.843,1.516,11.752.431,2.784,1.291,5.511,3.5,7.413a11.716,11.716,0,0,0,2.243,1.534c.725.376,1.542.587,2.258.968-.994-.529.075.041.333.157q.743.334,1.481.673c1.9.865,3.781,1.759,5.69,2.6a2.478,2.478,0,0,0,3.284-.861,2.419,2.419,0,0,0-.861-3.284c-1.765-.774-3.508-1.6-5.26-2.4a33.6,33.6,0,0,1-5.58-2.635,4.753,4.753,0,0,1-1.74-2.239c.158.374-.142-.464-.166-.545-.081-.27-.15-.543-.214-.818-.139-.606-.241-1.221-.337-1.836-.54-3.487-1.069-6.954-1.344-10.476a2.461,2.461,0,0,0-2.4-2.4,2.419,2.419,0,0,0-2.4,2.4Z"/><path class="d" d="M116.021,123.126c-6.849,2.6-17.392,2.982-20.321-3.422-1.842-4.028-1.047-14.432,5.917-12.725,4.067,1,7.185-3.308,12.659-3.308,5.3,0,7.222,2.9,11.626,2.109,4.237-.76,5.952,2.93,4.035,7.152C129.243,114.46,122.617,121.061,116.021,123.126Z"/><path class="c" d="M115.934,93.745c0,1.19.139,2.377.142,3.566a2.473,2.473,0,0,0,.7,1.7,2.4,2.4,0,0,0,3.394,0,2.494,2.494,0,0,0,.7-1.7c0-1.189-.139-2.376-.142-3.566a2.477,2.477,0,0,0-.7-1.7,2.4,2.4,0,0,0-3.394,0,2.494,2.494,0,0,0-.7,1.7Z"/><path class="c" d="M107.613,93.669c0,1.181.048,2.362.048,3.543a2.484,2.484,0,0,0,.7,1.7,2.4,2.4,0,0,0,3.394,0,2.491,2.491,0,0,0,.7-1.7c0-1.181-.047-2.362-.048-3.543a2.482,2.482,0,0,0-.7-1.7,2.4,2.4,0,0,0-3.394,0,2.489,2.489,0,0,0-.7,1.7Z"/><path class="c" d="M113.221,110.039a49.611,49.611,0,0,1,1.163,5.318l-.086-.638a3.228,3.228,0,0,1,.02.735l.086-.638a1.871,1.871,0,0,1-.081.33l.242-.574a1.336,1.336,0,0,1-.117.213l.375-.486a1.119,1.119,0,0,1-.173.171l.485-.375a3.453,3.453,0,0,1-.421.223l.574-.242a3.036,3.036,0,0,1-.711.207l.638-.086a2.8,2.8,0,0,1-.666,0l.638.086c-.251-.035-.5-.1-.749-.13a2.658,2.658,0,0,0-1.85.242,2.4,2.4,0,0,0-.861,3.284,2.3,2.3,0,0,0,1.435,1.1c.543.074,1.07.213,1.622.237a5.129,5.129,0,0,0,2.353-.554,3.324,3.324,0,0,0,1.864-2.2,5.664,5.664,0,0,0-.025-2.407c-.29-1.713-.686-3.412-1.126-5.092a2.4,2.4,0,1,0-4.629,1.276Z"/><path class="c" d="M96.405,96.819c-3.525.243-7.023.8-10.543,1.094a2.4,2.4,0,0,0,0,4.8c3.52-.3,7.018-.851,10.543-1.094a2.4,2.4,0,1,0,0-4.8Z"/><path class="c" d="M131.469,101.619c3.524.243,7.022.8,10.542,1.094a2.409,2.409,0,0,0,2.4-2.4,2.461,2.461,0,0,0-2.4-2.4c-3.52-.3-7.018-.851-10.542-1.094a2.412,2.412,0,0,0-2.4,2.4,2.457,2.457,0,0,0,2.4,2.4Z"/><path class="a" d="M58.388,174.139c.873-2.544.587-7.191,2.337-9.529.889-1.189,2.123-1.825,3.056-2.945.88-1.056,5.62-13.927,6.791-16.891,2.8-7.085,5.613-16.872,6.83-20.491,2.014-4.42,5.5-5.582,10.678-7.5,2.6-.96,8.6-1.518,13.635-2.056,2.534-.271,9.378-.469,12.408.4l.577-2.442c3.8-.225,4.759-.931,7.024-1.665,2.945-.954,8.093-2.311,11.081-3.036,3.237-.785,6.092.743,6.4,3.779.346,3.442-1.462,4.906-4.25,5.92-1.67.607-3.236.8-5.968,1.711l-5.681,2.047c2.718,2.32,5.209,4.73,7.377,6.634,4.147,3.644,4.048,10.151-2.51,9.426a13.082,13.082,0,0,1-7.76-3.847l-.858-.815.907,2.043c.665,1.5,2.1,5.457.271,7.235-1.512,1.469-5.429,1.172-6.789-.2-.561-.565-1.456-1.415-2.513-2.362l-3.1,7.84c-1.457,3.453-1.838,7.719-3.754,10.946a25.141,25.141,0,0,1-13.091,10.611c-3.3,2.3-5.782,6.262-5.428,9.209"/><path class="c" d="M106.013,146.763c-1.28,3.136-1.588,6.669-3.137,9.691a20.615,20.615,0,0,1-6.569,7.318A24.892,24.892,0,0,1,92,166.193a10.383,10.383,0,0,0-2.357,1.157,16.7,16.7,0,0,0-2.08,1.834c-2.213,2.341-4.2,5.637-3.909,8.983a2.463,2.463,0,0,0,2.4,2.4,2.417,2.417,0,0,0,2.4-2.4c-.228-2.578,1.83-5.469,3.922-6.91a13.464,13.464,0,0,1,2.117-.952,26.6,26.6,0,0,0,2.426-1.238,29.264,29.264,0,0,0,4.157-2.947,23.255,23.255,0,0,0,6.281-7.951c1.464-3.26,1.938-6.832,3.284-10.13a2.416,2.416,0,0,0-1.676-2.953,2.46,2.46,0,0,0-2.952,1.677Z"/><path class="c" d="M118.713,135.353a16.1,16.1,0,0,0,8.027,4.351c2.481.439,5.249.374,7.218-1.418,3.57-3.249,1.669-8.838-1.363-11.708a104.561,104.561,0,0,0-13.4-11.3,27.83,27.83,0,0,0-3.858-2.224,12.3,12.3,0,0,0-3.914-.778,52.686,52.686,0,0,0-7.272-.114c-2.5.11-5,.428-7.489.711a51.544,51.544,0,0,0-8.52,1.373c-4.662,1.352-9.849,3.479-12.343,7.9a31.4,31.4,0,0,0-2.182,6.145c-.838,2.691-1.682,5.38-2.57,8.054-1.367,4.112-2.932,8.144-4.471,12.192-.838,2.2-1.678,4.408-2.542,6.6a49.7,49.7,0,0,1-1.939,4.634c-.1.193-.227.381-.313.577.314-.714.339-.36.043-.095-.381.343-.745.7-1.136,1.031a9.5,9.5,0,0,0-2.935,3.873c-1.043,2.677-.809,5.621-1.677,8.335-.942,2.95,3.69,4.212,4.629,1.276.715-2.239.66-4.644,1.225-6.92a4.4,4.4,0,0,1,1.147-2.285,18.87,18.87,0,0,0,2.811-2.739,18.76,18.76,0,0,0,1.456-3.148c.689-1.648,1.341-3.312,1.987-4.978,3.034-7.821,5.951-15.655,8.455-23.665,1.155-3.691,1.661-7.391,5.112-9.453,3.926-2.346,8.444-3.286,12.924-3.817a84.27,84.27,0,0,1,13.8-.816,26.353,26.353,0,0,1,2.636.221,8.637,8.637,0,0,1,3.131,1.367,48.624,48.624,0,0,1,6.494,4.83c2.245,1.931,4.386,3.978,6.595,5.95a8.865,8.865,0,0,1,2,2.25,4.925,4.925,0,0,1,.621,1.971,3.369,3.369,0,0,1-.009.449c.034-.516-.054.192-.085.315-.094.375.262-.464-.034.1-.071.137-.348.522-.1.189-.039.052-.551.484-.167.177-.073.058-.637.313-.261.167a2.693,2.693,0,0,1-1.272.216,10.516,10.516,0,0,1-7.06-3.2c-2.26-2.1-5.662,1.284-3.4,3.394Z"/><path class="c" d="M110.228,128.084c.167.117.328.24.494.359.315.226-.108-.084-.14-.11.126.1.253.2.378.3.487.389.966.789,1.44,1.194,1.04.891,2.055,1.811,3.035,2.768.474.463.941.935,1.392,1.422.2.211.388.425.576.642.1.113.191.23.289.342.406.468-.166-.275.082.1.218.328.406.665.612,1,.191.308-.052-.122-.072-.175.061.16.127.318.187.478q.172.461.317.931c.105.346.2.695.275,1.048.032.145.057.292.087.437.139.69-.012-.283.016.136.022.329.022.649.018.979-.008.643.085-.274-.017.083-.025.089-.12.669-.1.375.014-.255-.259.259.078-.11a3.621,3.621,0,0,1-.266.26c.478-.427.068-.008-.037-.032-.262-.061.478-.107-.044.012-.13.03-.257.075-.387.106,0,0-.658.1-.3.06s-.329.008-.32.007c-.217.006-.435,0-.651-.011-.143-.008-.289-.02-.431-.038.561.073-.123-.045-.2-.063a5.913,5.913,0,0,1-.77-.239c.543.212,0-.038-.093-.083-.174-.083-.215-.262.077.078-.162-.189-.367-.359-.545-.533-.892-.868-1.814-1.706-2.75-2.527q-2.052-1.8-4.231-3.447a17.864,17.864,0,0,0-3.507-2.206,2.48,2.48,0,0,0-3.284.861,2.418,2.418,0,0,0,.861,3.284,17.825,17.825,0,0,1,3.508,2.206c.02.015.606.469.236.179.121.095.243.19.363.287q.549.437,1.088.885.965.8,1.9,1.638c.973.862,1.9,1.772,2.847,2.659a7.767,7.767,0,0,0,5.035,1.864,6.988,6.988,0,0,0,5.148-1.668c1.577-1.525,1.746-3.792,1.448-5.836a14.87,14.87,0,0,0-1.39-4.406,13.948,13.948,0,0,0-2.47-3.172,49.42,49.42,0,0,0-7.364-6.463,2.421,2.421,0,0,0-3.284.861,2.452,2.452,0,0,0,.861,3.284Z"/><path class="c" d="M94.288,139.948c.145-.873.239-1.752.331-2.632.016-.152.032-.3.049-.455l.036-.3c-.053.389-.061.452-.023.191.05-.292.1-.583.167-.871.046-.189.1-.376.158-.56.022-.069.046-.137.071-.2q.1-.258-.107.238a8.919,8.919,0,0,0,.508-.884q-.337.429-.089.134l.106-.113c.073-.076.149-.15.227-.221q.293-.248-.1.061a1.791,1.791,0,0,1,.44-.294c.092-.056.186-.109.283-.158q-.516.2-.256.106c.151-.028.317-.091.466-.133.456-.129-.56.01-.077.012.171,0,.34-.011.511,0,.075,0,.149.007.223.013.263.027.2.017-.184-.032.088.067.342.059.461.085.209.044.416.1.621.154.341.095.678.207,1.011.328q.27.1.537.205c.133.053.646.194.029.007a8.691,8.691,0,0,1,1,.443c.722.326,1.444.653,2.181.945a2.408,2.408,0,0,0,2.952-1.677,2.47,2.47,0,0,0-1.676-2.952c-.582-.23.408.186,0,0l-.5-.223c-.32-.143-.638-.289-.958-.431-.881-.392-1.769-.78-2.684-1.086a8,8,0,0,0-5.675-.09,7.223,7.223,0,0,0-3.977,4.559,14.314,14.314,0,0,0-.479,2.672c-.045.381-.081.762-.121,1.143a2.706,2.706,0,0,0-.07.615q.079-.573.023-.178c-.016.1-.032.2-.049.307a2.458,2.458,0,0,0,1.676,2.952,2.429,2.429,0,0,0,2.952-1.676Z"/><path class="c" d="M114.7,115.087a20.9,20.9,0,0,0,5.21-.881c1.314-.435,2.6-.93,3.927-1.327,1.769-.531,3.551-1.018,5.336-1.491a40.257,40.257,0,0,1,4.656-1.175,2.587,2.587,0,0,1,2.774,1.028,2.976,2.976,0,0,1-.267,2.981,8.19,8.19,0,0,1-2.854,1.423c-1.7.514-3.442.883-5.136,1.437-2.924.955-1.672,5.592,1.276,4.628,2.891-.944,6.208-1.3,8.775-3.044a7.505,7.505,0,0,0,2.887-8.6,7.123,7.123,0,0,0-7.792-4.61,62.087,62.087,0,0,0-9.765,2.455c-3.018.87-5.863,2.168-9.027,2.379a2.456,2.456,0,0,0-2.4,2.4,2.421,2.421,0,0,0,2.4,2.4Z"/><path class="c" d="M112.651,123.939a29.109,29.109,0,0,0-3.611-1.912,8.756,8.756,0,0,0-2.756-.7,20.531,20.531,0,0,0-2.405.021,2.4,2.4,0,0,0,0,4.8,18.153,18.153,0,0,1,2.659.006l-.638-.086a6.318,6.318,0,0,1,1.578.465l-.574-.242a27.409,27.409,0,0,1,3.324,1.791,2.4,2.4,0,0,0,2.423-4.145Z"/><path class="c" d="M118.562,146.936a18.1,18.1,0,0,0-4.671,4.344,20.01,20.01,0,0,1-2.022,2.075c-.376.33.328-.228.122-.088-.112.077-.219.161-.332.237-.2.132-.4.256-.6.37-.105.058-.211.114-.319.166-.072.036-.146.07-.219.1l.348-.145a4.15,4.15,0,0,1-.839.285,2.4,2.4,0,1,0,1.276,4.628,12.089,12.089,0,0,0,5.753-3.973c.651-.749,1.271-1.526,1.954-2.248a12.89,12.89,0,0,1,1.1-1.044c.144-.12.489-.321-.119.083.1-.065.19-.14.286-.207.229-.16.465-.305.708-.442a2.4,2.4,0,0,0-2.422-4.145Z"/><path class="e" d="M36.533,201.571c4.844-9.433,11.951-23.864,18.078-32.551.512-.726,34.612,13.154,34.232,14.063-2.981,7.15-13.562,43.216-17.073,53.4-4.7,13.631-15.283,59.942-40.086,60.489-19.662.788-28.491-11.865-29.2-28.361A91.259,91.259,0,0,1,4.029,249.46c2.367-11.724,5.962-19.61,10.378-28.083,2.754-5.284,11.5-17.37,18.295-21.952Z"/><path class="e" d="M229.355,323.318c-.623-12.633-1.187-24.45-1.324-28.558-.445-9.926-2.406-35.3-3.643-50.148-.889-10.667-2.284-26.534-8.135-34.519-3.8-5.184-12.668-11.434-18.222-14.667-8.915-5.189-24.4-11.752-38.883-16.467-2.923,7.317-29.623,16.116-48.443,16.069a91.839,91.839,0,0,1-24.733-3.748c-4.374,13.4-11.453,37.232-14.2,45.2-4.227,12.258-13.21,50.943-33.014,59.011-.056,9.553-.127,19.087-.212,27.805"/><path class="c" d="M36.354,295.45q-.081,13.779-.208,27.557c-.03,3.09,4.77,3.092,4.8,0q.133-13.777.208-27.557c.018-3.089-4.782-3.093-4.8,0Z"/><path class="c" d="M153.615,179.741a230.063,230.063,0,0,1,38.438,15.168,91.724,91.724,0,0,1,14.357,9.055c4.283,3.313,8.21,6.915,10.36,11.965,2.341,5.5,3.366,11.62,4.11,17.512.705,5.582,1.116,11.2,1.571,16.805.954,11.754,1.871,23.512,2.643,35.279.82,12.485,1.231,25,1.846,37.5.152,3.075,4.953,3.093,4.8,0-.564-11.461-.939-22.939-1.648-34.392-.735-11.9-1.668-23.783-2.621-35.665-.449-5.588-.855-11.185-1.466-16.758a91.45,91.45,0,0,0-3.6-18.83,32.454,32.454,0,0,0-3.575-7.77,32.894,32.894,0,0,0-5.776-6.35,86.981,86.981,0,0,0-15.117-10.645,171.6,171.6,0,0,0-17.207-8.157q-10.215-4.294-20.76-7.748-2.531-.826-5.079-1.594c-2.964-.894-4.231,3.738-1.276,4.629Z"/><path class="c" d="M187.582,231.729c-.044,8.945-.016,17.891,0,26.836q.048,20.539.175,41.078.074,11.685.183,23.369c.029,3.087,4.83,3.094,4.8,0q-.2-21.014-.282-42.027-.081-18.417-.1-36.836c0-4.14,0-8.28.017-12.42.015-3.089-4.785-3.093-4.8,0Z"/><path class="c" d="M63.466,184.123a77.248,77.248,0,0,0,17.166,7.993,101.036,101.036,0,0,0,21.887,4.851c13.386,1.432,27.136-.847,39.825-5.172,5.6-1.91,11.421-4.212,16.01-8.048a2.418,2.418,0,0,0,0-3.394,2.452,2.452,0,0,0-3.394,0c-.17.142-.34.285-.516.42.377-.291-.25.176-.263.185-.411.286-.823.568-1.246.836-1.025.649-2.087,1.237-3.168,1.786a63.292,63.292,0,0,1-7.336,3.11,107.551,107.551,0,0,1-18.164,4.719A84.866,84.866,0,0,1,84.5,188.332a74.994,74.994,0,0,1-18.606-8.354c-2.6-1.687-5.007,2.467-2.423,4.145Z"/><path class="e" d="M38.689,197.351c4.656-9.136,10.651-20.858,15.922-28.331.512-.726,34.612,13.154,34.232,14.063-1.79,4.293-6.319,19.009-10.413,32.289"/><path class="c" d="M86.529,182.445c-2.41,5.817-4.108,11.985-5.985,17.986-2.6,8.307-5.129,16.634-7.721,24.942-1.678,5.379-3.5,10.711-5.157,16.1-2.089,6.81-4.2,13.614-6.764,20.262a92.648,92.648,0,0,1-10.816,20.991,38.232,38.232,0,0,1-7.172,7.611c-.352.274.437-.321-.169.125-.189.138-.378.276-.569.41q-.475.333-.964.645a24.059,24.059,0,0,1-2.19,1.24c-.338.168-.68.329-1.026.478.458-.2-.228.087-.263.1-.211.078-.422.158-.635.232a19.873,19.873,0,0,1-2.392.669,10.839,10.839,0,0,1-1.855.279,36.689,36.689,0,0,1-3.781.085,30.2,30.2,0,0,1-6.721-.86,21.379,21.379,0,0,1-10.3-5.766C5.8,281.551,4.627,272.093,4.92,263.284a87.212,87.212,0,0,1,8.251-34.048,83.8,83.8,0,0,1,16.01-23.618,32.947,32.947,0,0,1,4.733-4.121c2.534-1.734.136-5.9-2.423-4.145a52.478,52.478,0,0,0-10.924,10.805,79.514,79.514,0,0,0-8.04,11.646c-5.591,10.334-9.874,21.488-11.513,33.166-1.5,10.7-1.99,22.552,3.255,32.376a26.034,26.034,0,0,0,8.686,9.538,29.591,29.591,0,0,0,13.633,4.379,27.834,27.834,0,0,0,12.421-1.3,28.961,28.961,0,0,0,9.388-6.03c5.866-5.5,10.006-12.747,13.358-19.974,5.79-12.484,9.463-25.822,13.669-38.89,4.976-15.459,9.258-31.168,14.66-46.486.339-.96.684-1.919,1.074-2.86a2.415,2.415,0,0,0-1.677-2.952,2.461,2.461,0,0,0-2.952,1.676Z"/><path class="c" d="M56.308,170.717a2.4,2.4,0,0,1-1.583.676c.024,0,.047,0,.07,0-1-.022-.584-.113-.338-.032.287.094.59.155.88.244.859.261,1.707.563,2.552.866,2.7.968,5.373,2.01,8.04,3.066q4.718,1.868,9.4,3.826c.875.366,1.076.451,1.748.736q1.153.49,2.3.987c1.259.545,2.515,1.1,3.763,1.666,1.029.468,2.058.941,3.063,1.46.316.163.623.34.934.512.021.012.3.2.3.2s-.5-.4-.386-.295a2.707,2.707,0,0,1-.526-2.187c-.695,3.006,3.932,4.29,4.629,1.276.57-2.466-2.127-3.478-3.882-4.315-2.7-1.288-5.457-2.464-8.212-3.632-6.469-2.74-12.978-5.426-19.586-7.815-1.78-.643-4.911-2.281-6.565-.636-2.192,2.182,1.2,5.576,3.4,3.394Z"/><path class="c" d="M19.907,234.876c5.356-8.643,10.668-17.336,15.6-26.229,4.419-7.968,8.284-16.237,12.639-24.243a145.763,145.763,0,0,1,8.536-14.173,2.42,2.42,0,0,0-.861-3.283,2.45,2.45,0,0,0-3.284.861c-5.738,8.174-10.245,17.219-14.78,26.093-4.147,8.115-8.443,16.076-13.1,23.912q-4.378,7.361-8.892,14.639c-1.631,2.634,2.519,5.047,4.145,2.423Z"/></svg>